# This is a monitor I made. Call it trash, but I am a crab. I do not care.

mtllib 4akup2zgr1vm.mtl

# 60 vertex positions
v  -1.9579117 -0.021509245 0.93801749
v  -1.9579117 -0.021509245 2.9380174
v  -1.9579117 0.15318185 2.9380174
v  -1.9579117 0.15318185 0.93801749
v  1.9579117 0.15318185 2.9380174
v  1.9579117 0.15318185 0.93801749
v  1.9579117 -0.021509245 2.9380174
v  1.9579117 -0.021509245 0.93801749
v  -1.9492099 0.15376438 2.9354446
v  1.9457984 0.15376438 2.9354446
v  1.9457984 0.1682917 1.1316197
v  -1.9492099 0.1682917 1.1316197
v  0.044673227 0.0052062497 0.80048835
v  0.044673227 0.0052062497 0.93762028
v  -0.04287634 0.0052062497 0.93762028
v  -0.04287634 0.0052062497 0.80048835
v  0.10089847 0.10584861 0.80048835
v  0.10089847 0.10584861 0.93762028
v  0.10089847 0.044563919 0.93762028
v  0.10089847 0.044563919 0.80048835
v  0.044673227 0.10584861 1.0256878
v  -0.04287634 0.10584861 1.0256878
v  -0.04287634 0.044563919 1.0256878
v  0.044673227 0.044563919 1.0256878
v  -0.099101581 0.044563919 0.80048835
v  -0.099101581 0.044563919 0.93762028
v  -0.099101581 0.10584861 0.93762028
v  -0.099101581 0.10584861 0.80048835
v  -0.04287634 0.14520627 0.80048835
v  -0.04287634 0.14520627 0.93762028
v  0.044673227 0.14520627 0.93762028
v  0.044673227 0.14520627 0.80048835
v  -0.04287634 0.044563919 0.71242082
v  -0.04287634 0.10584861 0.71242082
v  0.044673227 0.044563919 0.71242082
v  0.044673227 0.10584861 0.71242082
v  0.80302835 -0.37474576 0.72566801
v  0.80302835 -0.37474576 0.84053701
v  -0.72425783 -0.37474576 0.84053701
v  -0.72425783 -0.37474576 0.72566801
v  0.97338116 0.36837944 0.72566801
v  0.97338116 0.36837944 0.84053701
v  0.97338116 -0.3001754 0.84053701
v  0.97338116 -0.3001754 0.72566801
v  0.80302835 0.36837944 0.85334945
v  -0.72425783 0.36837944 0.85334945
v  -0.72425783 -0.3001754 0.85334945
v  0.80302835 -0.3001754 0.85334945
v  -0.89461076 -0.3001754 0.72566801
v  -0.89461076 -0.3001754 0.84053701
v  -0.89461076 0.36837944 0.84053701
v  -0.89461076 0.36837944 0.72566801
v  -0.72425783 0.4429498 0.72566801
v  -0.72425783 0.4429498 0.84053701
v  0.80302835 0.4429498 0.84053701
v  0.80302835 0.4429498 0.72566801
v  -0.72425783 -0.3001754 0.71285558
v  -0.72425783 0.36837944 0.71285558
v  0.80302835 -0.3001754 0.71285558
v  0.80302835 0.36837944 0.71285558

# 0 UV coordinates

# 57 vertex normals
vn -1.1303988 -0.050428882 -0.57734919
vn -1.1303988 -0.050428882 0.57734919
vn -1.1303988 0.050428882 0.57734919
vn -1.1303988 0.050428882 -0.57734919
vn 1.1303988 0.050428882 0.57734919
vn 1.1303988 0.050428882 -0.57734919
vn 1.1303988 -0.050428882 0.57734919
vn 1.1303988 -0.050428882 -0.57734919
vn 0 1.3404957 0.010795838
vn 0.034156326 -0.061290335 -0.053500231
vn 0.034156326 -0.061290335 0.053500231
vn -0.034156326 -0.061290335 0.053500231
vn -0.034156326 -0.061290335 -0.053500231
vn 0.087557621 0.023909427 -0.053500231
vn 0.087557621 0.023909427 0.053500231
vn 0.087557621 -0.023909427 0.053500231
vn 0.087557621 -0.023909427 -0.053500231
vn 0.034156326 0.023909427 0.13714454
vn -0.034156326 0.023909427 0.13714454
vn -0.034156326 -0.023909427 0.13714454
vn 0.034156326 -0.023909427 0.13714454
vn -0.087557621 -0.023909427 -0.053500231
vn -0.087557621 -0.023909427 0.053500231
vn -0.087557621 0.023909427 0.053500231
vn -0.087557621 0.023909427 -0.053500231
vn -0.034156326 0.061290335 -0.053500231
vn -0.034156326 0.061290335 0.053500231
vn 0.034156326 0.061290335 0.053500231
vn 0.034156326 0.061290335 -0.053500231
vn -0.034156326 -0.023909427 -0.13714454
vn -0.034156326 0.023909427 -0.13714454
vn 0.034156326 -0.023909427 -0.13714454
vn 0.034156326 0.023909427 -0.13714454
vn 0.3190186 -0.3579773 -0.023993762
vn 0.3190186 -0.3579773 0.023993762
vn -0.3190186 -0.3579773 0.023993762
vn -0.3190186 -0.3579773 -0.023993762
vn 0.81778449 0.13964733 -0.023993762
vn 0.81778449 0.13964733 0.023993762
vn 0.81778449 -0.13964733 0.023993762
vn 0.81778449 -0.13964733 -0.023993762
vn 0.3190186 0.13964733 0.061506525
vn -0.3190186 0.13964733 0.061506525
vn -0.3190186 -0.13964733 0.061506525
vn 0.3190186 -0.13964733 0.061506525
vn -0.81778449 -0.13964733 -0.023993762
vn -0.81778449 -0.13964733 0.023993762
vn -0.81778449 0.13964733 0.023993762
vn -0.81778449 0.13964733 -0.023993762
vn -0.3190186 0.3579773 -0.023993762
vn -0.3190186 0.3579773 0.023993762
vn 0.3190186 0.3579773 0.023993762
vn 0.3190186 0.3579773 -0.023993762
vn -0.3190186 -0.13964733 -0.061506525
vn -0.3190186 0.13964733 -0.061506525
vn 0.3190186 -0.13964733 -0.061506525
vn 0.3190186 0.13964733 -0.061506525

# Mesh 'Cube.003' with 6 faces
g Cube.003
usemtl Material.002
f  1//1 2//2 3//3 4//4
f  4//4 3//3 5//5 6//6
f  6//6 5//5 7//7 8//8
f  8//8 7//7 2//2 1//1
f  4//4 6//6 8//8 1//1
f  5//5 3//3 2//2 7//7

# Mesh 'Plane' with 1 faces
g Plane
usemtl Material.001
f  9//9 10//9 11//9 12//9

# Mesh 'Cube.002' with 26 faces
g Cube.002
usemtl Material.003
f  13//10 14//11 15//12 16//13
f  17//14 18//15 19//16 20//17
f  21//18 22//19 23//20 24//21
f  25//22 26//23 27//24 28//25
f  29//26 30//27 31//28 32//29
f  33//30 16//13 25//22
f  15//12 23//20 26//23
f  34//31 28//25 29//26
f  22//19 30//27 27//24
f  35//32 20//17 13//10
f  24//21 14//11 19//16
f  36//33 32//29 17//14
f  21//18 18//15 31//28
f  34//31 33//30 25//22 28//25
f  16//13 15//12 26//23 25//22
f  23//20 22//19 27//24 26//23
f  30//27 29//26 28//25 27//24
f  36//33 34//31 29//26 32//29
f  22//19 21//18 31//28 30//27
f  18//15 17//14 32//29 31//28
f  35//32 36//33 17//14 20//17
f  21//18 24//21 19//16 18//15
f  14//11 13//10 20//17 19//16
f  33//30 35//32 13//10 16//13
f  24//21 23//20 15//12 14//11
f  34//31 36//33 35//32 33//30

# Mesh 'Cube.001' with 26 faces
g Cube.001
usemtl Material.004
f  37//34 38//35 39//36 40//37
f  41//38 42//39 43//40 44//41
f  45//42 46//43 47//44 48//45
f  49//46 50//47 51//48 52//49
f  53//50 54//51 55//52 56//53
f  57//54 40//37 49//46
f  39//36 47//44 50//47
f  58//55 52//49 53//50
f  46//43 54//51 51//48
f  59//56 44//41 37//34
f  48//45 38//35 43//40
f  60//57 56//53 41//38
f  45//42 42//39 55//52
f  58//55 57//54 49//46 52//49
f  40//37 39//36 50//47 49//46
f  47//44 46//43 51//48 50//47
f  54//51 53//50 52//49 51//48
f  60//57 58//55 53//50 56//53
f  46//43 45//42 55//52 54//51
f  42//39 41//38 56//53 55//52
f  59//56 60//57 41//38 44//41
f  45//42 48//45 43//40 42//39
f  38//35 37//34 44//41 43//40
f  57//54 59//56 37//34 40//37
f  48//45 47//44 39//36 38//35
f  58//55 60//57 59//56 57//54

